<?xml version="1.0" encoding="utf-8"?>
<!-- Generator: Adobe Illustrator 25.1.0, SVG Export Plug-In . SVG Version: 6.00 Build 0)  -->
<svg version="1.1" id="Camada_1" xmlns="http://www.w3.org/2000/svg" xmlns:xlink="http://www.w3.org/1999/xlink" x="0px" y="0px"
	 viewBox="0 0 888 204" style="enable-background:new 0 0 888 204;" xml:space="preserve">
<style type="text/css">
	.st0{fill:#000000;}
</style>
<g>
	<path class="st0" d="M834.22,31.29c-5.09,0.31-8.94,4.78-8.94,9.88v122.19c0,5.1,3.85,9.58,8.94,9.88
		c5.53,0.33,10.12-4.05,10.12-9.51V40.8C844.34,35.34,839.75,30.95,834.22,31.29z"/>
	<path class="st0" d="M315.43,32.29c-4.76-2.38-10.55-0.45-12.93,4.3L249.25,143c-0.02,0.04-0.07,0.04-0.09,0L195.9,36.6
		c-2.38-4.76-8.17-6.69-12.93-4.3c-4.76,2.38-6.69,8.17-4.3,12.93l61.41,122.71c1.69,3.37,5.09,5.33,8.63,5.33
		c0.16,0,0.33-0.02,0.5-0.03c0.17,0.01,0.33,0.03,0.5,0.03c3.53,0,6.94-1.95,8.63-5.33l61.41-122.71
		C322.12,40.46,320.19,34.67,315.43,32.29z"/>
	<path class="st0" d="M622.14,32.24c-5.1,0.31-8.96,4.79-8.96,9.91v93.26c0,0.05-0.06,0.07-0.09,0.03L536.07,35.01
		c-2.95-3.84-8.4-4.96-12.72-2.24c-2.83,1.77-4.41,5-4.41,8.33v122.23c0,5.11,3.86,9.6,8.96,9.91c5.54,0.33,10.14-4.06,10.14-9.53
		V69.12c0-0.05,0.06-0.07,0.09-0.03l77.01,100.43c1.84,2.4,4.67,3.74,7.58,3.74c1.81,0,3.66-0.52,5.32-1.62
		c2.72-1.8,4.22-4.95,4.22-8.21V41.78C632.28,36.3,627.68,31.91,622.14,32.24z"/>
	<path class="st0" d="M787.17,31.27H671.76c-5.1,0-9.58,3.85-9.88,8.94c-0.33,5.53,4.05,10.12,9.51,10.12h48.31
		c0.03,0,0.05,0.02,0.05,0.05v112.98c0,5.1,3.85,9.58,8.94,9.88c5.53,0.33,10.12-4.05,10.12-9.51V50.38c0-0.03,0.02-0.05,0.05-0.05
		h47.94c5.1,0,9.58-3.85,9.88-8.94C797.01,35.86,792.62,31.27,787.17,31.27z"/>
	<path class="st0" d="M125.02,36.59c-1.77-3.54-5.42-5.5-9.13-5.31c-3.7-0.19-7.35,1.78-9.11,5.31L45.37,159.31
		c-2.38,4.76-0.45,10.55,4.3,12.93c1.38,0.69,2.86,1.02,4.31,1.02c3.53,0,6.94-1.95,8.63-5.33l15.09-30.15
		c0.01-0.02,0.03-0.03,0.05-0.03h76.34c0.02,0,0.04,0.01,0.05,0.03l15.09,30.15c1.69,3.37,5.09,5.33,8.63,5.33
		c1.45,0,2.92-0.33,4.31-1.02c4.76-2.38,6.69-8.17,4.3-12.93L125.02,36.59z M84.97,123.23l30.88-61.71c0.02-0.04,0.07-0.04,0.09,0
		l30.88,61.71c0.02,0.03-0.01,0.07-0.05,0.07H85.02C84.98,123.3,84.96,123.26,84.97,123.23z"/>
	<path class="st0" d="M489.97,160.21c-0.11-0.32-0.25-0.64-0.4-0.95L433.02,44.99c-3.49-8.08-11.39-13.28-20.21-13.28
		c-6.02,0-11.62,2.43-15.67,6.54L383.24,64.7l-33.35,70.24c-5.5,10.61-14.19,17.64-24.53,20.1l51.06-102.82
		c0.1-0.21,0.2-0.42,0.28-0.64c0.84-1.88,2.69-3.08,4.75-3.08c0.2,0,0.39,0.02,0.58,0.04l8.4-14.94c-2.77-1.23-5.81-1.91-8.98-1.91
		c-8.83,0-16.74,5.22-20.22,13.32l-56.61,113.99c-0.09,0.16-0.17,0.33-0.25,0.5c-0.55,1.21-0.82,2.5-0.82,3.83
		c0,4.93,3.86,8.98,8.72,9.28c1.54,0.13,3.1,0.19,4.64,0.19c20.27,0,38.21-11.33,47.98-30.3c0.04-0.08,0.08-0.16,0.12-0.24
		l31.82-67.02v0l0.01-0.02l0.28-0.59l0,0l9.32-19.57l-0.01-0.03l1.4-2.95c0.06-0.12,0.11-0.25,0.17-0.37c0.81-1.95,2.7-3.2,4.81-3.2
		c2.11,0,4,1.26,4.81,3.21c0.07,0.17,0.15,0.34,0.23,0.5l50.88,102.81c-10.27-2.47-18.91-9.49-24.41-20.09l-33.49-70.62l-9.25,19.72
		l27.61,58.23c0.04,0.08,0.08,0.17,0.12,0.25c9.92,19.26,27.36,30.3,47.84,30.3c1.62,0,3.25-0.07,4.86-0.21
		c1.02-0.09,2.02-0.36,2.94-0.81c3.43-1.66,5.56-4.9,5.56-8.46C490.52,162.31,490.34,161.25,489.97,160.21z"/>
</g>
</svg>
